<svg xmlns="http://www.w3.org/2000/svg" width="40" height="40" fill="#25D366" viewBox="0 0 24 24">
  <path d="M12.001 2.001a9.998 9.998 0 00-8.437 15.255l-1.097 3.994 4.102-1.076A9.993 9.993 0 0012.001 22c5.523 0 10-4.477 10-10s-4.477-9.999-10-9.999zm5.812 14.667c-.242.678-1.408 1.273-1.933 1.354-.494.08-1.099.113-1.765-.12a15.993 15.993 0 01-2.689-1.203 11.14 11.14 0 01-3.527-3.89c-.296-.51-.55-1.26-.64-1.798-.089-.539-.048-1.064.085-1.46.231-.702.845-.932 1.215-.932.162 0 .304.011.435.02.137.01.319-.051.5.382.191.454.646 1.575.704 1.688.058.112.096.244.019.394-.077.15-.116.244-.231.38-.115.136-.243.305-.347.409-.118.119-.24.248-.104.487.137.238.61 1.007 1.317 1.63.905.807 1.667 1.06 1.905 1.179.238.118.375.099.517-.059.143-.159.592-.689.752-.926.16-.238.321-.198.54-.119.22.079 1.4.662 1.64.783.24.119.398.178.456.278.059.101.059.582-.182 1.26z"/>
</svg>
