<?xml version="1.0" encoding="UTF-8"?>
<svg id="Layer_2" data-name="Layer 2" xmlns="http://www.w3.org/2000/svg" viewBox="0 0 309.45 216.31">
  <defs>
    <style>
      .cls-1 {
        fill: #0073d1;
      }

      .cls-2 {
        fill: #cc5c01;
      }

      .cls-3 {
        fill: #f23f00;
      }

      .cls-4 {
        fill: #ffcb68;
      }

      .cls-5 {
        fill: none;
        stroke: #c42200;
        stroke-miterlimit: 10;
        stroke-width: 4.01px;
      }

      .cls-6 {
        fill: #f57f00;
      }

      .cls-7 {
        fill: #80c719;
      }

      .cls-8 {
        fill: #006299;
      }
    </style>
  </defs>
  <g id="Layer_1-2" data-name="Layer 1">
    <g>
      <g>
        <g>
          <path class="cls-1" d="M165.08,31.48h-14.5v6.59h14.21v9.99h-14.21v13.86h-10.34V21.49h24.84v9.99Z"/>
          <path class="cls-1" d="M188.07,33.04h9.59v28.89h-9.59v-2.89c-1.73,2.47-4.41,3.7-8.03,3.7-3.12,0-5.67-1.07-7.65-3.21-1.98-2.14-2.98-5.21-2.98-9.21v-17.27h9.59v16.06c0,1.5.39,2.64,1.18,3.41.79.77,1.84,1.16,3.15,1.16,1.5,0,2.67-.45,3.49-1.36.83-.9,1.24-2.2,1.24-3.9v-15.37Z"/>
          <path class="cls-1" d="M221.12,42.23h-6.01v8.38c0,1.27.46,2.06,1.39,2.37.92.31,2.46.4,4.62.29v8.67c-5.74.69-9.77.16-12.1-1.59-2.33-1.75-3.5-4.92-3.5-9.5v-8.61h-4.33v-9.19h4.33v-5.2l9.59-2.89v8.09h6.01v9.19Z"/>
          <path class="cls-1" d="M244.28,33.04h9.59v28.89h-9.59v-2.89c-1.73,2.47-4.41,3.7-8.03,3.7-3.12,0-5.67-1.07-7.65-3.21-1.98-2.14-2.97-5.21-2.97-9.21v-17.27h9.59v16.06c0,1.5.39,2.64,1.18,3.41.79.77,1.84,1.16,3.15,1.16,1.5,0,2.67-.45,3.5-1.36.83-.9,1.24-2.2,1.24-3.9v-15.37Z"/>
          <path class="cls-1" d="M269.01,38.41c.54-1.89,1.62-3.35,3.23-4.39,1.62-1.04,3.43-1.56,5.43-1.56v10.63c-2.2-.35-4.19.06-5.98,1.21-1.79,1.16-2.69,3.04-2.69,5.66v11.96h-9.59v-28.89h9.59v5.37Z"/>
          <path class="cls-1" d="M289.11,51.01c.96,2.35,3.12,3.52,6.47,3.52,2.08,0,3.83-.67,5.26-2.02l6.93,4.85c-2.85,3.58-6.99,5.37-12.42,5.37-4.89,0-8.81-1.43-11.76-4.3-2.95-2.87-4.42-6.5-4.42-10.89s1.44-7.99,4.33-10.92c2.89-2.93,6.57-4.39,11.03-4.39s7.88,1.44,10.69,4.33c2.81,2.89,4.22,6.51,4.22,10.86,0,1.27-.14,2.47-.4,3.58h-19.93ZM289,44.37h11.09c-.77-2.7-2.58-4.04-5.43-4.04s-4.85,1.35-5.66,4.04Z"/>
          <path class="cls-1" d="M154.62,108.3c-4.27,0-7.82-.9-10.63-2.71-2.81-1.81-4.78-4.25-5.89-7.34l8.84-5.14c1.5,3.58,4.16,5.37,7.97,5.37,3.16,0,4.74-.9,4.74-2.69,0-1.18-.91-2.14-2.73-2.86-.77-.32-2.46-.85-5.07-1.61-3.7-1.08-6.62-2.59-8.78-4.54-2.16-1.94-3.24-4.65-3.24-8.12,0-3.74,1.34-6.76,4.02-9.07,2.68-2.31,6.02-3.47,10.02-3.47,3.39,0,6.39.79,9.01,2.37,2.62,1.58,4.62,3.87,6.01,6.87l-8.67,5.08c-1.27-3-3.37-4.51-6.3-4.51-1.23,0-2.17.25-2.8.76-.64.5-.95,1.14-.95,1.92,0,.89.47,1.65,1.41,2.27.94.62,2.78,1.34,5.51,2.15,1.92.69,3.49,1.26,4.71,1.7,1.22.44,2.54,1.13,3.96,2.07,1.43.94,2.49,2.15,3.18,3.63s1.04,3.22,1.04,5.22c0,3.97-1.41,7.07-4.22,9.3-2.81,2.23-6.53,3.35-11.15,3.35Z"/>
          <path class="cls-1" d="M190.67,87.73h-6.01v8.38c0,1.27.46,2.06,1.39,2.37.92.31,2.46.4,4.62.29v8.67c-5.74.69-9.77.16-12.1-1.59-2.33-1.75-3.5-4.92-3.5-9.5v-8.61h-4.33v-9.19h4.33v-5.2l9.59-2.89v8.09h6.01v9.19Z"/>
          <path class="cls-1" d="M203.15,96.51c.96,2.35,3.12,3.52,6.47,3.52,2.08,0,3.83-.67,5.26-2.02l6.93,4.85c-2.85,3.58-6.99,5.37-12.42,5.37-4.89,0-8.81-1.43-11.76-4.3-2.95-2.87-4.42-6.5-4.42-10.89s1.44-7.99,4.33-10.92c2.89-2.93,6.57-4.39,11.03-4.39s7.88,1.44,10.69,4.33c2.81,2.89,4.22,6.51,4.22,10.86,0,1.27-.14,2.46-.4,3.58h-19.93ZM203.03,89.87h11.09c-.77-2.7-2.58-4.04-5.43-4.04s-4.85,1.35-5.66,4.04Z"/>
          <path class="cls-1" d="M245.38,77.74c3.85,0,7.08,1.45,9.68,4.36s3.9,6.54,3.9,10.89-1.3,7.98-3.9,10.89c-2.6,2.91-5.83,4.36-9.68,4.36-3.5,0-6.24-1.16-8.2-3.47v14.21h-9.59v-40.44h9.59v2.66c1.96-2.31,4.7-3.47,8.2-3.47ZM238.85,97.55c1.12,1.16,2.58,1.73,4.39,1.73s3.27-.58,4.39-1.73c1.12-1.16,1.68-2.68,1.68-4.56s-.56-3.41-1.68-4.56c-1.12-1.16-2.58-1.73-4.39-1.73s-3.27.58-4.39,1.73c-1.12,1.16-1.67,2.68-1.67,4.56s.56,3.41,1.67,4.56Z"/>
        </g>
        <g>
          <path class="cls-8" d="M104.35,16.33V2.33c0-1.27,1.03-2.3,2.3-2.3h5.21c1.27,0,2.3,1.03,2.3,2.3v24.45l-9.81-10.46Z"/>
          <path class="cls-3" d="M59.38,130.1v20.3C26.59,150.4,0,123.81,0,91.03h20.3c0,3.67,2.06,7.33,6.22,8.78l.05.02c-5.73,6.67.15,16.84,8.78,15.22-.12.63-.17,1.23-.17,1.84,0,5.34,4.54,9.22,9.39,9.22,2.04,0,4.16-.69,6-2.28l.02.05c1.47,4.14,5.12,6.22,8.78,6.22Z"/>
          <path class="cls-1" d="M90.81.78c-.94-1.04-2.56-1.04-3.5,0l-27.94,30.88v59.38h22.18c-1.71-1.83-2.74-4.28-2.74-6.95,0-6.32,5.75-11.32,12.3-10.05,3.77.73,6.89,3.66,7.85,7.39.94,3.67-.14,7.19-2.38,9.61h22.16V31.66L90.81.78ZM87.04,64.54h-6.79c-.37,0-.66-.3-.66-.66v-9.11h7.45v9.77ZM87.04,50.74h-7.45v-1.3c0-4.54,3.19-8.33,7.45-9.25v10.55ZM98.52,63.88c0,.36-.29.66-.66.66h-6.79v-9.77h7.45v9.11ZM98.52,50.74h-7.45v-10.56c4.26.93,7.45,4.72,7.45,9.26v1.3Z"/>
          <g>
            <path class="cls-6" d="M15.29,2.51v88.52H0V2.47C0,1.12,1.1.03,2.45.03h10.34c1.38,0,2.5,1.11,2.5,2.49Z"/>
            <path class="cls-6" d="M59.37,2.61v88.43h-15.29V2.6c0-1.42,1.16-2.57,2.58-2.57h10.12c1.43,0,2.59,1.16,2.59,2.58Z"/>
            <g>
              <rect class="cls-2" x="15.29" y="22.81" width="28.8" height="15.25"/>
              <rect class="cls-2" x="15.29" y="53" width="28.8" height="15.25"/>
            </g>
          </g>
          <polyline class="cls-5" points="2.01 106.39 26.52 99.82 26.54 99.82"/>
          <line class="cls-5" x1="35.32" y1="115.05" x2="17.37" y2="133.01"/>
          <line class="cls-5" x1="50.57" y1="123.84" x2="43.99" y2="148.4"/>
          <path class="cls-7" d="M118.75,91.04c0,5.22-.68,10.29-1.94,15.1-1.49-.84-3.19-1.32-5-1.32-5.66-.02-10.25,4.56-10.25,10.22,0,4.43,2.8,8.21,6.76,9.63-10.71,15.56-28.63,25.74-48.93,25.74v-27.84c1.82,1.71,4.27,2.74,6.94,2.74,5.66,0,10.25-4.59,10.25-10.25s-4.59-10.24-10.25-10.24c-2.67,0-5.12,1.03-6.94,2.72v-16.5h22.18c-1.71-1.82-2.74-4.27-2.74-6.94,0-5.66,4.59-10.25,10.25-10.25s10.24,4.59,10.24,10.25c0,2.67-1.03,5.12-2.72,6.94h22.16Z"/>
          <path class="cls-4" d="M59.38,107.99v22.11c-3.67,0-7.31-2.08-8.78-6.22l-.02-.05c-1.84,1.59-3.95,2.28-6,2.28-4.85,0-9.39-3.89-9.39-9.22,0-.61.05-1.22.17-1.84-8.63,1.62-14.51-8.55-8.78-15.22l-.05-.02c-4.16-1.45-6.22-5.12-6.22-8.78h22.13c0,9.36,7.58,16.96,16.94,16.96Z"/>
          <path d="M59.38,91.03v16.96c-9.36,0-16.94-7.6-16.94-16.96h16.94Z"/>
        </g>
      </g>
      <path d="M66.35,215.99c-.08.11-.17.21-.25.32l.3-.27s-.03-.04-.05-.05Z"/>
      <polygon points="74.02 187.09 74.05 187.09 74.05 187.1 74.02 187.09"/>
      <g>
        <path class="cls-3" d="M149.88,139.62h-1.88l-6.7-6.94v6.94h-1.43v-14.3h1.43v6.54l6.5-6.54h1.88l-6.86,6.95,7.07,7.36Z"/>
        <path class="cls-3" d="M152.89,126.95c-.19.19-.42.29-.69.29s-.5-.09-.69-.29c-.19-.19-.29-.42-.29-.69s.1-.5.29-.69c.19-.19.42-.29.69-.29s.5.09.69.29c.19.19.29.42.29.69s-.1.5-.29.69ZM151.52,139.62v-10.22h1.35v10.22h-1.35Z"/>
        <path class="cls-3" d="M160.51,129.16c1.24,0,2.22.38,2.93,1.13.71.76,1.07,1.77,1.07,3.05v6.27h-1.35v-6.27c0-.91-.24-1.62-.73-2.12s-1.17-.76-2.05-.76c-.98,0-1.78.31-2.39.93s-.92,1.58-.92,2.87v5.35h-1.35v-10.22h1.35v1.59c.76-1.23,1.91-1.84,3.43-1.84Z"/>
        <path class="cls-3" d="M175.91,125.32h1.35v14.3h-1.35v-2c-.94,1.5-2.32,2.25-4.13,2.25-1.46,0-2.7-.52-3.73-1.55-1.03-1.04-1.54-2.3-1.54-3.8s.51-2.76,1.54-3.8c1.03-1.04,2.27-1.55,3.73-1.55,1.81,0,3.19.75,4.13,2.25v-6.09ZM169.03,137.38c.78.78,1.73,1.17,2.86,1.17s2.08-.39,2.86-1.17c.78-.78,1.17-1.74,1.17-2.87s-.39-2.09-1.17-2.87c-.78-.78-1.73-1.17-2.86-1.17s-2.08.39-2.86,1.17-1.16,1.74-1.16,2.87.39,2.09,1.16,2.87Z"/>
        <path class="cls-3" d="M184.84,129.16c1.51,0,2.73.53,3.67,1.6s1.4,2.33,1.4,3.79c0,.15-.01.36-.04.63h-8.97c.14,1.04.58,1.86,1.32,2.46.74.61,1.66.91,2.75.91.78,0,1.45-.16,2.01-.48.57-.32.99-.74,1.28-1.26l1.18.69c-.45.72-1.06,1.29-1.84,1.72-.78.42-1.66.63-2.66.63-1.61,0-2.92-.5-3.92-1.51s-1.51-2.29-1.51-3.84.5-2.8,1.49-3.82,2.27-1.53,3.84-1.53ZM184.84,130.47c-1.06,0-1.95.32-2.67.95-.71.63-1.14,1.45-1.28,2.46h7.62c-.14-1.08-.55-1.91-1.25-2.51-.69-.6-1.5-.9-2.43-.9Z"/>
        <path class="cls-3" d="M193.4,131.1c.63-1.24,1.7-1.86,3.23-1.86v1.31c-.93,0-1.7.27-2.31.82-.61.55-.92,1.4-.92,2.58v5.68h-1.35v-10.22h1.35v1.7Z"/>
        <path class="cls-3" d="M206.64,129.41h1.35v9.81c0,1.47-.5,2.63-1.51,3.47-1.01.84-2.21,1.27-3.62,1.27-2.4,0-4.01-.83-4.84-2.49l1.18-.67c.61,1.24,1.83,1.86,3.66,1.86,1.17,0,2.09-.31,2.77-.93.67-.62,1.01-1.46,1.01-2.5v-1.59c-.94,1.5-2.32,2.25-4.13,2.25-1.46,0-2.7-.52-3.73-1.55-1.03-1.04-1.54-2.3-1.54-3.8s.51-2.76,1.54-3.8c1.03-1.04,2.27-1.55,3.73-1.55,1.81,0,3.19.75,4.13,2.25v-2ZM199.76,137.38c.78.78,1.73,1.17,2.86,1.17s2.08-.39,2.86-1.17c.78-.78,1.17-1.74,1.17-2.87s-.39-2.09-1.17-2.87c-.78-.78-1.73-1.17-2.86-1.17s-2.08.39-2.86,1.17-1.16,1.74-1.16,2.87.39,2.09,1.16,2.87Z"/>
        <path class="cls-3" d="M219.64,129.41h1.35v10.22h-1.35v-2c-.94,1.5-2.32,2.25-4.13,2.25-1.46,0-2.7-.52-3.73-1.55-1.03-1.04-1.54-2.3-1.54-3.8s.51-2.76,1.54-3.8c1.03-1.04,2.27-1.55,3.73-1.55,1.81,0,3.19.75,4.13,2.25v-2ZM212.75,137.38c.78.78,1.73,1.17,2.86,1.17s2.08-.39,2.86-1.17c.78-.78,1.17-1.74,1.17-2.87s-.39-2.09-1.17-2.87c-.78-.78-1.73-1.17-2.86-1.17s-2.08.39-2.86,1.17-1.16,1.74-1.16,2.87.39,2.09,1.16,2.87Z"/>
        <path class="cls-3" d="M225.19,131.1c.63-1.24,1.7-1.86,3.23-1.86v1.31c-.93,0-1.7.27-2.31.82-.61.55-.92,1.4-.92,2.58v5.68h-1.35v-10.22h1.35v1.7Z"/>
        <path class="cls-3" d="M235.88,130.71h-2.94v6.19c0,.56.11.96.33,1.2.22.24.54.36.98.37s.98,0,1.63-.03v1.18c-1.43.22-2.5.12-3.22-.31-.72-.42-1.07-1.23-1.07-2.41v-6.19h-2.15v-1.31h2.15v-2.45l1.35-.41v2.86h2.94v1.31Z"/>
        <path class="cls-3" d="M242.24,129.16c1.51,0,2.73.53,3.67,1.6s1.4,2.33,1.4,3.79c0,.15-.01.36-.04.63h-8.97c.14,1.04.58,1.86,1.32,2.46.74.61,1.66.91,2.75.91.78,0,1.45-.16,2.01-.48.57-.32.99-.74,1.28-1.26l1.18.69c-.45.72-1.06,1.29-1.84,1.72-.78.42-1.66.63-2.66.63-1.61,0-2.92-.5-3.92-1.51s-1.51-2.29-1.51-3.84.5-2.8,1.49-3.82,2.27-1.53,3.84-1.53ZM242.24,130.47c-1.06,0-1.95.32-2.67.95-.71.63-1.14,1.45-1.28,2.46h7.62c-.14-1.08-.55-1.91-1.25-2.51-.69-.6-1.5-.9-2.43-.9Z"/>
        <path class="cls-3" d="M254.23,129.16c1.24,0,2.22.38,2.93,1.13.71.76,1.07,1.77,1.07,3.05v6.27h-1.35v-6.27c0-.91-.24-1.62-.73-2.12s-1.17-.76-2.05-.76c-.98,0-1.78.31-2.39.93s-.92,1.58-.92,2.87v5.35h-1.35v-10.22h1.35v1.59c.76-1.23,1.91-1.84,3.43-1.84Z"/>
      </g>
    </g>
  </g>
</svg>