<?xml version="1.0" encoding="UTF-8"?>
<svg id="Layer_2" data-name="Layer 2" xmlns="http://www.w3.org/2000/svg" viewBox="0 0 420.53 154.58">
  <defs>
    <style>
      .cls-1, .cls-2 {
        fill: #0073d1;
      }

      .cls-3 {
        fill: #cc5c01;
      }

      .cls-4 {
        fill: #f23f00;
      }

      .cls-5 {
        fill: #ffcb68;
      }

      .cls-6 {
        fill: none;
        stroke: #c42200;
        stroke-miterlimit: 10;
        stroke-width: 4.01px;
      }

      .cls-2 {
        font-family: Cairo-Black, Cairo;
        font-size: 37.77px;
        font-weight: 800;
      }

      .cls-7 {
        fill: #f57f00;
      }

      .cls-8 {
        fill: #80c719;
      }

      .cls-9 {
        fill: #006299;
      }
    </style>
  </defs>
  <g id="Layer_1-2" data-name="Layer 1">
    <g>
      <g>
        <path class="cls-4" d="M211,40.1c-2.15,0-3.82-.33-5.02-.98-1.2-.65-2.04-1.67-2.52-3.04-.48-1.37-.72-3.12-.72-5.24s.24-3.87.72-5.24c.48-1.37,1.32-2.38,2.52-3.04,1.2-.65,2.87-.98,5.02-.98h7.66v17.03h-2.89v-15.66l1.48,1.26h-6.26c-1.43,0-2.54.17-3.31.52-.78.35-1.31.99-1.61,1.94-.3.95-.44,2.34-.44,4.17s.15,3.22.44,4.17c.3.95.83,1.6,1.61,1.94.78.35,1.88.52,3.31.52h11.66v2.63h-11.66ZM207.41,18.25v-3.33h2.89v3.33h-2.89ZM212.48,18.25v-3.33h2.89v3.33h-2.89ZM222.66,40.1v-2.63c.15,0,.27.03.37.09.1.06.17.15.22.26.05.11.09.25.11.41.02.16.04.34.04.54s-.01.38-.04.56c-.02.17-.06.31-.11.43-.05.11-.12.2-.22.26-.1.06-.22.09-.37.09Z"/>
        <path class="cls-4" d="M222.66,40.1c-.15,0-.27-.03-.37-.09-.1-.06-.17-.15-.22-.26-.05-.11-.09-.25-.11-.43-.02-.17-.04-.36-.04-.56,0-.27.02-.5.06-.68.04-.19.11-.33.22-.44.11-.11.27-.17.46-.17v2.63ZM222.66,40.1v-2.63h27.36l-2.67,2.41v-8.7c0-1.56-.22-2.84-.65-3.87-.43-1.02-1.07-1.8-1.92-2.31-.85-.52-1.92-.78-3.2-.78-1.09,0-2.09.18-3.02.54-.93.36-1.78.83-2.57,1.41s-1.52,1.22-2.2,1.93c-.68.7-1.3,1.41-1.87,2.13-.57.72-1.09,1.37-1.55,1.96l-.93-2.63c.62-.77,1.24-1.53,1.87-2.3.63-.76,1.29-1.49,1.98-2.17.69-.68,1.45-1.28,2.28-1.8.83-.52,1.73-.93,2.72-1.24.99-.31,2.1-.46,3.33-.46,1.75,0,3.19.3,4.31.89s2,1.38,2.63,2.35c.63.98,1.07,2.02,1.31,3.13.25,1.11.37,2.18.37,3.22v8.92h-27.58ZM227.92,37.47v-15.88h2.89v15.88h-2.89ZM238.03,18.29v-3.33h2.89v3.33h-2.89Z"/>
        <path class="cls-4" d="M261.65,48.28c-.86,0-1.78-.07-2.76-.2-.97-.14-2.04-.33-3.2-.57l.44-2.33c1.31.17,2.4.3,3.28.37.88.07,1.62.11,2.24.11,2.05,0,3.54-.39,4.48-1.17.94-.78,1.41-1.91,1.41-3.39v-17.85l1.48.96h-6.26c-1.43,0-2.54.17-3.31.52-.78.35-1.31.99-1.61,1.94-.3.95-.44,2.34-.44,4.17s.15,3.22.44,4.17c.3.95.83,1.6,1.61,1.94.78.35,1.88.52,3.31.52h4.78v2.63h-4.78c-2.15,0-3.82-.33-5.02-.98-1.2-.65-2.04-1.67-2.52-3.04-.48-1.37-.72-3.12-.72-5.24s.24-3.87.72-5.24c.48-1.37,1.32-2.38,2.52-3.04,1.2-.65,2.87-.98,5.02-.98h7.66v19.47c0,1.53-.35,2.84-1.05,3.92-.7,1.09-1.71,1.91-3.02,2.46-1.31.56-2.88.83-4.7.83Z"/>
        <path class="cls-4" d="M273.54,48.28c-.32,0-.66-.02-1.02-.06-.36-.04-.71-.07-1.05-.09l.33-2.63c.35.02.67.06.96.09.3.04.55.06.78.06,1.16,0,2.1-.44,2.81-1.31.72-.88,1.07-2.09,1.07-3.65v-19.1h2.89v19.1c0,1.51-.29,2.83-.87,3.98-.58,1.15-1.38,2.04-2.39,2.67-1.01.63-2.18.94-3.52.94Z"/>
        <path class="cls-1" d="M11.7,93.71c-2.25,0-4.26-.41-6.04-1.24-1.78-.83-3.17-1.96-4.17-3.41-1-1.44-1.5-3.07-1.5-4.87,0-.52.04-1.17.11-1.96.07-.79.17-1.67.3-2.63.12-.96.26-1.97.43-3.02.16-1.05.31-2.07.46-3.06l6.29.81c-.27,1.63-.49,3.1-.67,4.43s-.31,2.43-.41,3.33-.15,1.57-.15,2.02c0,.86.2,1.6.59,2.22.39.62.99,1.1,1.8,1.44s1.78.52,2.94.52c1.26,0,2.23-.18,2.92-.54s1.17-.83,1.44-1.42c.27-.59.41-1.23.41-1.93v-25.81h6.37v25.81c0,1.85-.48,3.47-1.43,4.87-.95,1.39-2.26,2.48-3.94,3.26-1.68.78-3.6,1.17-5.78,1.17ZM22.84,84.53v-5.41h3.81v5.41h-3.81ZM26.66,84.53v-5.41c.15,0,.26.06.35.18.09.12.16.3.22.54.06.24.1.52.13.85s.04.71.04,1.13-.01.8-.04,1.13c-.02.33-.07.62-.13.85-.06.23-.14.41-.22.54-.09.12-.2.19-.35.19Z"/>
        <path class="cls-1" d="M26.66,84.53c-.12,0-.23-.06-.33-.19-.1-.12-.17-.3-.22-.54s-.09-.52-.13-.85c-.04-.33-.06-.71-.06-1.13,0-.57.02-1.05.07-1.44s.13-.7.24-.93c.11-.22.25-.33.43-.33v5.41ZM26.66,84.53v-5.41h7.78l-3.96,3.29v-16.51h6.41v18.62h-10.22ZM30.47,93.23v-4.85h6.41v4.85h-6.41ZM36.88,84.53v-5.41h3.81v5.41h-3.81ZM40.69,84.53v-5.41c.12,0,.23.06.33.18.1.12.17.3.22.54.05.24.09.52.13.85s.05.71.05,1.13-.02.8-.05,1.13c-.04.33-.08.62-.13.85-.05.23-.12.41-.2.54-.09.12-.2.19-.35.19Z"/>
        <path class="cls-1" d="M40.69,84.53c-.12,0-.23-.06-.33-.19-.1-.12-.17-.3-.22-.54-.05-.23-.09-.52-.13-.85-.04-.33-.06-.71-.06-1.13,0-.57.03-1.05.07-1.44.05-.39.13-.7.24-.93.11-.22.25-.33.43-.33v5.41ZM40.69,84.53v-5.41h16.33l-1.22,1.04v-9.74l1.07.89h-3.55c-.86,0-1.54.12-2.04.35-.49.23-.85.64-1.07,1.2-.22.57-.33,1.36-.33,2.37,0,1.16.11,2.01.33,2.56.22.54.58.9,1.07,1.07.49.17,1.17.26,2.04.26v5.15c-2.07,0-3.84-.31-5.31-.93-1.47-.62-2.59-1.59-3.35-2.92-.76-1.33-1.15-3.06-1.15-5.18,0-1.97.38-3.66,1.15-5.05.77-1.39,1.88-2.46,3.35-3.18,1.47-.73,3.24-1.09,5.31-1.09h8.85v18.62h-21.47ZM46.87,62.42v-4.85h6.07v4.85h-6.07ZM54.76,62.42v-4.85h6.03v4.85h-6.03ZM62.16,84.53v-5.41h3.81v5.41h-3.81ZM65.98,84.53v-5.41c.15,0,.27.06.35.18.09.12.16.3.22.54.06.24.1.52.13.85.02.33.04.71.04,1.13s-.01.8-.04,1.13c-.03.33-.07.62-.13.85-.06.23-.14.41-.22.54-.09.12-.2.19-.35.19Z"/>
        <path class="cls-1" d="M65.98,84.53c-.12,0-.23-.06-.33-.19-.1-.12-.17-.3-.22-.54s-.09-.52-.13-.85c-.04-.33-.06-.71-.06-1.13,0-.57.02-1.05.07-1.44s.13-.7.24-.93c.11-.22.25-.33.43-.33v5.41ZM65.98,84.53v-5.41h11.14l-3.96,3.29v-16.51h6.37v18.62h-13.55ZM69.38,62.42v-4.85h6.07v4.85h-6.07ZM77.27,62.42v-4.85h6.03v4.85h-6.03ZM79.53,84.53v-5.41h5.04v5.41h-5.04ZM84.56,84.53v-5.41c.12,0,.23.06.32.18.09.12.16.3.22.54.06.24.11.52.15.85s.06.71.06,1.13-.02.8-.06,1.13c-.04.33-.09.62-.15.85s-.14.41-.22.54c-.09.12-.19.19-.32.19Z"/>
        <path class="cls-1" d="M84.56,84.53c-.12,0-.23-.06-.33-.19-.1-.12-.17-.3-.22-.54-.05-.23-.09-.52-.13-.85-.04-.33-.06-.71-.06-1.13,0-.57.03-1.05.07-1.44.05-.39.13-.7.24-.93.11-.22.25-.33.43-.33v5.41ZM84.56,84.53v-5.41h5.37l-1.3,1.41v-10.81h6.37v14.81h-10.44ZM95,84.53v-5.41h2.22c.76,0,1.34-.11,1.74-.33.39-.22.67-.7.83-1.44.16-.74.24-1.85.24-3.33v-6.15h6.37v6.15c0,2.42-.33,4.41-1,5.96-.67,1.55-1.67,2.7-3.02,3.44-1.35.74-3.07,1.11-5.17,1.11h-2.22ZM107.89,84.53c-1.14,0-2.26-.22-3.39-.65-1.12-.43-2.14-1.06-3.05-1.87l3.85-3.96c.42.35.84.61,1.28.8.43.19.87.28,1.31.28h7.22l-3.59,3.11v-7.81c0-.37-.04-.95-.13-1.74-.09-.79-.21-1.7-.37-2.72-.16-1.02-.34-2.08-.54-3.17l6.26-.89c.17.89.35,1.89.52,3.02.17,1.12.32,2.18.44,3.17.12.99.18,1.76.18,2.33v10.11h-10ZM117.88,84.53v-5.41h3.81v5.41h-3.81ZM121.7,84.53v-5.41c.12,0,.23.06.33.18.1.12.17.3.22.54.05.24.09.52.13.85s.06.71.06,1.13-.02.8-.06,1.13c-.04.33-.08.62-.13.85-.05.23-.12.41-.22.54-.1.12-.21.19-.33.19Z"/>
        <path class="cls-1" d="M121.7,84.53c-.12,0-.23-.06-.33-.19-.1-.12-.17-.3-.22-.54s-.09-.52-.13-.85c-.04-.33-.06-.71-.06-1.13,0-.57.02-1.05.07-1.44s.13-.7.24-.93c.11-.22.25-.33.43-.33v5.41ZM121.66,84.53v-5.41h18.51l-2.33,2.18v-6.04c0-1.09-.11-1.92-.33-2.5-.22-.58-.62-.99-1.18-1.22-.57-.23-1.38-.35-2.44-.35-.99,0-1.95.06-2.89.19-.94.12-1.69.3-2.26.52l4.04-3.67c-.15.54-.29,1.23-.43,2.07-.14.84-.25,1.73-.33,2.67-.09.94-.13,1.84-.13,2.7,0,.74.04,1.56.11,2.44s.17,1.68.28,2.37c.11.69.19,1.16.24,1.41l-6.04,1.67c-.12-.37-.26-.95-.41-1.74-.15-.79-.27-1.71-.37-2.78s-.15-2.18-.15-3.37.06-2.43.17-3.57c.11-1.15.25-2.18.43-3.11.17-.93.33-1.66.48-2.2.62-.22,1.58-.44,2.89-.67,1.31-.22,2.76-.33,4.37-.33,2.29,0,4.21.31,5.74.93,1.53.62,2.68,1.62,3.44,3,.76,1.38,1.15,3.26,1.15,5.63v9.18h-22.55ZM144.21,84.53v-5.41h3.85v5.41h-3.85ZM148.06,84.53v-5.41c.12,0,.23.06.31.18.09.12.16.3.22.54.06.24.11.52.15.85.04.33.05.71.05,1.13s-.02.8-.05,1.13c-.04.33-.09.62-.15.85s-.14.41-.22.54c-.09.12-.19.19-.31.19Z"/>
        <path class="cls-1" d="M148.06,84.53c-.12,0-.23-.06-.33-.19-.1-.12-.17-.3-.22-.54s-.09-.52-.13-.85c-.04-.33-.06-.71-.06-1.13,0-.57.02-1.05.07-1.44s.13-.7.24-.93c.11-.22.25-.33.43-.33v5.41ZM148.06,84.53v-5.41h4v5.41h-4ZM152.06,84.53v-25.92h6.37v25.92h-6.37Z"/>
        <path class="cls-1" d="M164.05,84.53v-25.92h6.33v25.92h-6.33Z"/>
        <path class="cls-1" d="M183.08,84.53v-8.11c0-2.47.41-4.47,1.22-6.02s2.01-2.68,3.59-3.41c1.58-.73,3.53-1.09,5.85-1.09s4.28.36,5.87,1.09,2.79,1.86,3.59,3.41,1.2,3.55,1.2,6.02v8.11h-21.33ZM189.45,81.97l-2.96-2.85h14.51l-2.96,2.85v-5.29c0-1.28-.11-2.32-.32-3.11s-.62-1.36-1.24-1.72c-.62-.36-1.53-.54-2.74-.54s-2.09.18-2.72.54c-.63.36-1.05.93-1.26,1.72-.21.79-.31,1.83-.31,3.11v5.29ZM186.79,62.42v-4.85h6.07v4.85h-6.07ZM194.67,62.42v-4.85h6.04v4.85h-6.04Z"/>
        <path class="cls-1" d="M215.22,94.41c-.96,0-1.95-.07-2.96-.2s-2.07-.31-3.18-.54l.93-5.07c1.21.15,2.24.25,3.09.32.85.06,1.56.09,2.13.09,1.58,0,2.71-.27,3.41-.81s1.04-1.38,1.04-2.52v-15.14l1.04.78h-3.52c-.69,0-1.3.09-1.81.26-.52.17-.92.55-1.2,1.13-.28.58-.43,1.48-.43,2.68,0,1.14.12,1.97.37,2.5.25.53.62.87,1.13,1.02.51.15,1.15.22,1.94.22h2.48v5.41h-2.48c-2.07,0-3.84-.33-5.31-1-1.47-.67-2.59-1.68-3.35-3.04-.77-1.36-1.15-3.06-1.15-5.11s.38-3.78,1.15-5.18c.76-1.41,1.88-2.47,3.35-3.2s3.24-1.09,5.31-1.09h8.85v19.77c0,1.78-.45,3.33-1.35,4.65-.9,1.32-2.16,2.33-3.78,3.04-1.62.7-3.51,1.06-5.68,1.06ZM226.03,84.53v-5.41h3.85v5.41h-3.85ZM229.88,84.53v-5.41c.12,0,.23.06.31.18.09.12.16.3.22.54.06.24.11.52.15.85s.06.71.06,1.13-.02.8-.06,1.13c-.04.33-.09.62-.15.85s-.14.41-.22.54c-.09.12-.19.19-.31.19Z"/>
        <path class="cls-1" d="M229.88,84.53c-.12,0-.23-.06-.33-.19-.1-.12-.17-.3-.22-.54-.05-.23-.09-.52-.13-.85-.04-.33-.06-.71-.06-1.13,0-.57.03-1.05.07-1.44.05-.39.13-.7.24-.93.11-.22.25-.33.43-.33v5.41ZM229.88,84.53v-5.41h26.73l-5.22,4.41v-7.15c0-1.28-.17-2.29-.5-3.02s-.8-1.25-1.39-1.57c-.59-.32-1.28-.48-2.07-.48-1.04,0-2.04.23-3,.7-.96.47-1.86,1.06-2.7,1.78-.84.72-1.61,1.48-2.31,2.3-.7.81-1.32,1.57-1.85,2.28-.53.7-.96,1.25-1.28,1.65l-1.22-4.18c1.16-1.56,2.21-2.94,3.17-4.17.95-1.22,1.91-2.26,2.87-3.13.96-.86,2.02-1.52,3.17-1.96,1.15-.44,2.5-.67,4.05-.67s2.92.27,4.11.8c1.18.53,2.17,1.27,2.96,2.22.79.95,1.38,2.06,1.78,3.33.39,1.27.59,2.65.59,4.13v8.15h-27.88ZM232.51,79.12v-20.51h6.37v20.51h-6.37ZM257.13,84.53v-5.41h3.81v5.41h-3.81ZM260.95,84.53v-5.41c.15,0,.26.06.35.18.09.12.16.3.22.54.06.24.1.52.13.85.02.33.04.71.04,1.13s-.01.8-.04,1.13c-.03.33-.07.62-.13.85s-.14.41-.22.54c-.09.12-.2.19-.35.19Z"/>
        <path class="cls-1" d="M260.95,84.53c-.12,0-.23-.06-.33-.19-.1-.12-.17-.3-.22-.54s-.09-.52-.13-.85c-.04-.33-.06-.71-.06-1.13,0-.57.02-1.05.07-1.44s.13-.7.24-.93c.11-.22.25-.33.43-.33v5.41ZM260.95,84.53v-5.41h15.62l-2.22,1.7v-5.22c0-1.38-.43-2.44-1.3-3.17-.86-.73-2.28-1.09-4.26-1.09-.49,0-1.16.03-2,.09s-1.78.17-2.81.31l-.56-5c1.06-.25,2.1-.45,3.13-.61s2.04-.24,3.05-.24c2.12,0,4.02.4,5.68,1.18,1.67.79,2.99,1.91,3.96,3.35.97,1.44,1.46,3.17,1.46,5.17v8.92h-19.77ZM266.39,62.72v-4.85h6.41v4.85h-6.41Z"/>
      </g>
      <g>
        <path class="cls-9" d="M406.14,16.33V2.33c0-1.27,1.03-2.3,2.3-2.3h5.21c1.27,0,2.3,1.03,2.3,2.3v24.45l-9.81-10.46Z"/>
        <path class="cls-4" d="M361.17,130.1v20.3c-32.79,0-59.37-26.59-59.37-59.37h20.3c0,3.67,2.06,7.33,6.22,8.78l.05.02c-5.73,6.67.15,16.84,8.78,15.22-.12.63-.17,1.23-.17,1.84,0,5.34,4.54,9.22,9.39,9.22,2.04,0,4.16-.69,6-2.28l.02.05c1.47,4.14,5.12,6.22,8.78,6.22Z"/>
        <path class="cls-1" d="M392.6.78c-.94-1.04-2.56-1.04-3.5,0l-27.94,30.88v59.38h22.18c-1.71-1.83-2.74-4.28-2.74-6.95,0-6.32,5.75-11.32,12.3-10.05,3.77.73,6.89,3.66,7.85,7.39.94,3.67-.14,7.19-2.38,9.61h22.16V31.66L392.6.78ZM388.83,64.54h-6.79c-.37,0-.66-.3-.66-.66v-9.11h7.45v9.77ZM388.83,50.74h-7.45v-1.3c0-4.54,3.19-8.33,7.45-9.25v10.55ZM400.31,63.88c0,.36-.29.66-.66.66h-6.79v-9.77h7.45v9.11ZM400.31,50.74h-7.45v-10.56c4.26.93,7.45,4.72,7.45,9.26v1.3Z"/>
        <g>
          <path class="cls-7" d="M317.08,2.51v88.52h-15.29V2.47c0-1.35,1.1-2.44,2.45-2.44h10.34c1.38,0,2.5,1.11,2.5,2.49Z"/>
          <path class="cls-7" d="M361.16,2.61v88.43h-15.29V2.6c0-1.42,1.16-2.57,2.58-2.57h10.12c1.43,0,2.59,1.16,2.59,2.58Z"/>
          <g>
            <rect class="cls-3" x="317.08" y="22.81" width="28.8" height="15.25"/>
            <rect class="cls-3" x="317.08" y="53" width="28.8" height="15.25"/>
          </g>
        </g>
        <polyline class="cls-6" points="303.8 106.39 328.31 99.82 328.33 99.82"/>
        <line class="cls-6" x1="337.11" y1="115.05" x2="319.15" y2="133.01"/>
        <line class="cls-6" x1="352.36" y1="123.84" x2="345.77" y2="148.4"/>
        <path class="cls-8" d="M420.53,91.04c0,5.22-.68,10.29-1.94,15.1-1.49-.84-3.19-1.32-5-1.32-5.66-.02-10.25,4.56-10.25,10.22,0,4.43,2.8,8.21,6.76,9.63-10.71,15.56-28.63,25.74-48.93,25.74v-27.84c1.82,1.71,4.27,2.74,6.94,2.74,5.66,0,10.25-4.59,10.25-10.25s-4.59-10.24-10.25-10.24c-2.67,0-5.12,1.03-6.94,2.72v-16.5h22.18c-1.71-1.82-2.74-4.27-2.74-6.94,0-5.66,4.59-10.25,10.25-10.25s10.24,4.59,10.24,10.25c0,2.67-1.03,5.12-2.72,6.94h22.16Z"/>
        <path class="cls-5" d="M361.17,107.99v22.11c-3.67,0-7.31-2.08-8.78-6.22l-.02-.05c-1.84,1.59-3.95,2.28-6,2.28-4.85,0-9.39-3.89-9.39-9.22,0-.61.05-1.22.17-1.84-8.63,1.62-14.51-8.55-8.78-15.22l-.05-.02c-4.16-1.45-6.22-5.12-6.22-8.78h22.13c0,9.36,7.58,16.96,16.94,16.96Z"/>
        <path d="M361.16,91.03v16.96c-9.36,0-16.94-7.6-16.94-16.96h16.94Z"/>
      </g>
    </g>
    <text class="cls-2" transform="translate(131.63 133.01)"><tspan x="0" y="0">العالمية</tspan></text>
  </g>
</svg>